<?xml version="1.0" encoding="UTF-8" standalone="no"?>
<!DOCTYPE svg PUBLIC "-//W3C//DTD SVG 1.1//EN"
 "http://www.w3.org/Graphics/SVG/1.1/DTD/svg11.dtd">
<!-- Generated by graphviz version 2.44.1 (20200629.0846)
 -->
<!-- Pages: 1 -->
<svg width="1649pt" height="320pt"
 viewBox="0.00 0.00 1649.00 320.00" xmlns="http://www.w3.org/2000/svg" xmlns:xlink="http://www.w3.org/1999/xlink">
<g id="graph0" class="graph" transform="scale(1 1) rotate(0) translate(4 316)">
<polygon fill="white" stroke="transparent" points="-4,4 -4,-316 1645,-316 1645,4 -4,4"/>
<g id="clust1" class="cluster">
<title>cluster__rdf</title>
<polygon fill="none" stroke="black" stroke-dasharray="1,5" points="8,-8 8,-304 1633,-304 1633,-8 8,-8"/>
<text text-anchor="middle" x="820.5" y="-288.8" font-family="Times New Roman,serif" font-size="14.00">Rdf</text>
</g>
<g id="clust2" class="cluster">
<title>cluster__header</title>
<polygon fill="none" stroke="black" stroke-dasharray="1,5" points="205,-96 205,-269 668,-269 668,-96 205,-96"/>
<text text-anchor="middle" x="436.5" y="-253.8" font-family="Times New Roman,serif" font-size="14.00">Rdf::Header</text>
</g>
<g id="clust3" class="cluster">
<title>cluster__index</title>
<polygon fill="none" stroke="black" stroke-dasharray="1,5" points="688,-90 688,-201 887,-201 887,-90 688,-90"/>
<text text-anchor="middle" x="787.5" y="-185.8" font-family="Times New Roman,serif" font-size="14.00">Rdf::Index</text>
</g>
<g id="clust4" class="cluster">
<title>cluster__index_entry</title>
<polygon fill="none" stroke="black" stroke-dasharray="1,5" points="907,-16 907,-273 1625,-273 1625,-16 907,-16"/>
<text text-anchor="middle" x="1266" y="-257.8" font-family="Times New Roman,serif" font-size="14.00">Rdf::IndexEntry</text>
</g>
<!-- rdf__seq -->
<g id="node1" class="node">
<title>rdf__seq</title>
<polygon fill="#e0ffe0" stroke="transparent" points="24.5,-182 24.5,-203 52.5,-203 52.5,-182 24.5,-182"/>
<polygon fill="none" stroke="black" points="24.5,-182 24.5,-203 52.5,-203 52.5,-182 24.5,-182"/>
<text text-anchor="start" x="27.5" y="-188.8" font-family="Times New Roman,serif" font-size="14.00">pos</text>
<polygon fill="#e0ffe0" stroke="transparent" points="52.5,-182 52.5,-203 80.5,-203 80.5,-182 52.5,-182"/>
<polygon fill="none" stroke="black" points="52.5,-182 52.5,-203 80.5,-203 80.5,-182 52.5,-182"/>
<text text-anchor="start" x="55.5" y="-188.8" font-family="Times New Roman,serif" font-size="14.00">size</text>
<polygon fill="#e0ffe0" stroke="transparent" points="80.5,-182 80.5,-203 126.5,-203 126.5,-182 80.5,-182"/>
<polygon fill="none" stroke="black" points="80.5,-182 80.5,-203 126.5,-203 126.5,-182 80.5,-182"/>
<text text-anchor="start" x="91" y="-188.8" font-family="Times New Roman,serif" font-size="14.00">type</text>
<polygon fill="#e0ffe0" stroke="transparent" points="126.5,-182 126.5,-203 169.5,-203 169.5,-182 126.5,-182"/>
<polygon fill="none" stroke="black" points="126.5,-182 126.5,-203 169.5,-203 169.5,-182 126.5,-182"/>
<text text-anchor="start" x="142.5" y="-188.8" font-family="Times New Roman,serif" font-size="14.00">id</text>
<polygon fill="none" stroke="black" points="24.5,-161 24.5,-182 52.5,-182 52.5,-161 24.5,-161"/>
<text text-anchor="start" x="35" y="-167.8" font-family="Times New Roman,serif" font-size="14.00">0</text>
<polygon fill="none" stroke="black" points="52.5,-161 52.5,-182 80.5,-182 80.5,-161 52.5,-161"/>
<text text-anchor="start" x="59.5" y="-167.8" font-family="Times New Roman,serif" font-size="14.00">32</text>
<polygon fill="none" stroke="black" points="80.5,-161 80.5,-182 126.5,-182 126.5,-161 80.5,-161"/>
<text text-anchor="start" x="83.5" y="-167.8" font-family="Times New Roman,serif" font-size="14.00">Header</text>
<polygon fill="none" stroke="black" points="126.5,-161 126.5,-182 169.5,-182 169.5,-161 126.5,-161"/>
<text text-anchor="start" x="129.5" y="-167.8" font-family="Times New Roman,serif" font-size="14.00">header</text>
</g>
<!-- header__seq -->
<g id="node2" class="node">
<title>header__seq</title>
<polygon fill="#e0ffe0" stroke="transparent" points="221.5,-213 221.5,-234 249.5,-234 249.5,-213 221.5,-213"/>
<polygon fill="none" stroke="black" points="221.5,-213 221.5,-234 249.5,-234 249.5,-213 221.5,-213"/>
<text text-anchor="start" x="224.5" y="-219.8" font-family="Times New Roman,serif" font-size="14.00">pos</text>
<polygon fill="#e0ffe0" stroke="transparent" points="249.5,-213 249.5,-234 277.5,-234 277.5,-213 249.5,-213"/>
<polygon fill="none" stroke="black" points="249.5,-213 249.5,-234 277.5,-234 277.5,-213 249.5,-213"/>
<text text-anchor="start" x="252.5" y="-219.8" font-family="Times New Roman,serif" font-size="14.00">size</text>
<polygon fill="#e0ffe0" stroke="transparent" points="277.5,-213 277.5,-234 308.5,-234 308.5,-213 277.5,-213"/>
<polygon fill="none" stroke="black" points="277.5,-213 277.5,-234 308.5,-234 308.5,-213 277.5,-213"/>
<text text-anchor="start" x="280.5" y="-219.8" font-family="Times New Roman,serif" font-size="14.00">type</text>
<polygon fill="#e0ffe0" stroke="transparent" points="308.5,-213 308.5,-234 384.5,-234 384.5,-213 308.5,-213"/>
<polygon fill="none" stroke="black" points="308.5,-213 308.5,-234 384.5,-234 384.5,-213 308.5,-213"/>
<text text-anchor="start" x="341" y="-219.8" font-family="Times New Roman,serif" font-size="14.00">id</text>
<polygon fill="none" stroke="black" points="221.5,-192 221.5,-213 249.5,-213 249.5,-192 221.5,-192"/>
<text text-anchor="start" x="232" y="-198.8" font-family="Times New Roman,serif" font-size="14.00">0</text>
<polygon fill="none" stroke="black" points="249.5,-192 249.5,-213 277.5,-213 277.5,-192 249.5,-192"/>
<text text-anchor="start" x="260" y="-198.8" font-family="Times New Roman,serif" font-size="14.00">8</text>
<polygon fill="none" stroke="black" points="277.5,-192 277.5,-213 308.5,-213 308.5,-192 277.5,-192"/>
<polygon fill="none" stroke="black" points="308.5,-192 308.5,-213 384.5,-213 384.5,-192 308.5,-192"/>
<text text-anchor="start" x="322" y="-198.8" font-family="Times New Roman,serif" font-size="14.00">identifier</text>
<polygon fill="none" stroke="black" points="221.5,-171 221.5,-192 249.5,-192 249.5,-171 221.5,-171"/>
<text text-anchor="start" x="232" y="-177.8" font-family="Times New Roman,serif" font-size="14.00">8</text>
<polygon fill="none" stroke="black" points="249.5,-171 249.5,-192 277.5,-192 277.5,-171 249.5,-171"/>
<text text-anchor="start" x="260" y="-177.8" font-family="Times New Roman,serif" font-size="14.00">4</text>
<polygon fill="none" stroke="black" points="277.5,-171 277.5,-192 308.5,-192 308.5,-171 277.5,-171"/>
<text text-anchor="start" x="281.5" y="-177.8" font-family="Times New Roman,serif" font-size="14.00">u4le</text>
<polygon fill="none" stroke="black" points="308.5,-171 308.5,-192 384.5,-192 384.5,-171 308.5,-171"/>
<text text-anchor="start" x="326" y="-177.8" font-family="Times New Roman,serif" font-size="14.00">version</text>
<polygon fill="none" stroke="black" points="221.5,-150 221.5,-171 249.5,-171 249.5,-150 221.5,-150"/>
<text text-anchor="start" x="228.5" y="-156.8" font-family="Times New Roman,serif" font-size="14.00">12</text>
<polygon fill="none" stroke="black" points="249.5,-150 249.5,-171 277.5,-171 277.5,-150 249.5,-150"/>
<text text-anchor="start" x="260" y="-156.8" font-family="Times New Roman,serif" font-size="14.00">4</text>
<polygon fill="none" stroke="black" points="277.5,-150 277.5,-171 308.5,-171 308.5,-150 277.5,-150"/>
<text text-anchor="start" x="281.5" y="-156.8" font-family="Times New Roman,serif" font-size="14.00">u4le</text>
<polygon fill="none" stroke="black" points="308.5,-150 308.5,-171 384.5,-171 384.5,-150 308.5,-150"/>
<text text-anchor="start" x="322.5" y="-156.8" font-family="Times New Roman,serif" font-size="14.00">reserved</text>
<polygon fill="none" stroke="black" points="221.5,-129 221.5,-150 249.5,-150 249.5,-129 221.5,-129"/>
<text text-anchor="start" x="228.5" y="-135.8" font-family="Times New Roman,serif" font-size="14.00">16</text>
<polygon fill="none" stroke="black" points="249.5,-129 249.5,-150 277.5,-150 277.5,-129 249.5,-129"/>
<text text-anchor="start" x="260" y="-135.8" font-family="Times New Roman,serif" font-size="14.00">8</text>
<polygon fill="none" stroke="black" points="277.5,-129 277.5,-150 308.5,-150 308.5,-129 277.5,-129"/>
<text text-anchor="start" x="282" y="-135.8" font-family="Times New Roman,serif" font-size="14.00">s8le</text>
<polygon fill="none" stroke="black" points="308.5,-129 308.5,-150 384.5,-150 384.5,-129 308.5,-129"/>
<text text-anchor="start" x="311.5" y="-135.8" font-family="Times New Roman,serif" font-size="14.00">index_offset</text>
<polygon fill="none" stroke="black" points="221.5,-108 221.5,-129 249.5,-129 249.5,-108 221.5,-108"/>
<text text-anchor="start" x="228.5" y="-114.8" font-family="Times New Roman,serif" font-size="14.00">24</text>
<polygon fill="none" stroke="black" points="249.5,-108 249.5,-129 277.5,-129 277.5,-108 249.5,-108"/>
<text text-anchor="start" x="260" y="-114.8" font-family="Times New Roman,serif" font-size="14.00">8</text>
<polygon fill="none" stroke="black" points="277.5,-108 277.5,-129 308.5,-129 308.5,-108 277.5,-108"/>
<text text-anchor="start" x="282" y="-114.8" font-family="Times New Roman,serif" font-size="14.00">s8le</text>
<polygon fill="none" stroke="black" points="308.5,-108 308.5,-129 384.5,-129 384.5,-108 308.5,-108"/>
<text text-anchor="start" x="317" y="-114.8" font-family="Times New Roman,serif" font-size="14.00">index_size</text>
</g>
<!-- rdf__seq&#45;&gt;header__seq -->
<g id="edge1" class="edge">
<title>rdf__seq:header_type&#45;&gt;header__seq</title>
<path fill="none" stroke="black" stroke-width="2" d="M170.5,-171C180.84,-171 191.64,-171 202.41,-171"/>
<polygon fill="black" stroke="black" stroke-width="2" points="202.71,-174.5 212.71,-171 202.71,-167.5 202.71,-174.5"/>
</g>
<!-- header__inst__index -->
<g id="node3" class="node">
<title>header__inst__index</title>
<polygon fill="#e0ffe0" stroke="transparent" points="436,-145 436,-166 512,-166 512,-145 436,-145"/>
<polygon fill="none" stroke="black" points="436,-145 436,-166 512,-166 512,-145 436,-145"/>
<text text-anchor="start" x="463" y="-151.8" font-family="Times New Roman,serif" font-size="14.00">pos</text>
<polygon fill="#e0ffe0" stroke="transparent" points="512,-145 512,-166 577,-166 577,-145 512,-145"/>
<polygon fill="none" stroke="black" points="512,-145 512,-166 577,-166 577,-145 512,-145"/>
<text text-anchor="start" x="533.5" y="-151.8" font-family="Times New Roman,serif" font-size="14.00">size</text>
<polygon fill="#e0ffe0" stroke="transparent" points="577,-145 577,-166 615,-166 615,-145 577,-145"/>
<polygon fill="none" stroke="black" points="577,-145 577,-166 615,-166 615,-145 577,-145"/>
<text text-anchor="start" x="583.5" y="-151.8" font-family="Times New Roman,serif" font-size="14.00">type</text>
<polygon fill="#e0ffe0" stroke="transparent" points="615,-145 615,-166 652,-166 652,-145 615,-145"/>
<polygon fill="none" stroke="black" points="615,-145 615,-166 652,-166 652,-145 615,-145"/>
<text text-anchor="start" x="628" y="-151.8" font-family="Times New Roman,serif" font-size="14.00">id</text>
<polygon fill="none" stroke="black" points="436,-124 436,-145 512,-145 512,-124 436,-124"/>
<text text-anchor="start" x="439" y="-130.8" font-family="Times New Roman,serif" font-size="14.00">index_offset</text>
<polygon fill="none" stroke="black" points="512,-124 512,-145 577,-145 577,-124 512,-124"/>
<text text-anchor="start" x="515" y="-130.8" font-family="Times New Roman,serif" font-size="14.00">index_size</text>
<polygon fill="none" stroke="black" points="577,-124 577,-145 615,-145 615,-124 577,-124"/>
<text text-anchor="start" x="580" y="-130.8" font-family="Times New Roman,serif" font-size="14.00">Index</text>
<polygon fill="none" stroke="black" points="615,-124 615,-145 652,-145 652,-124 615,-124"/>
<text text-anchor="start" x="618" y="-130.8" font-family="Times New Roman,serif" font-size="14.00">index</text>
</g>
<!-- header__seq&#45;&gt;header__inst__index -->
<g id="edge2" class="edge">
<title>header__seq:index_offset_type&#45;&gt;header__inst__index:index_pos</title>
<path fill="none" stroke="#404040" d="M385.5,-139C403.81,-139 410.58,-135.57 424.92,-134.39"/>
<polygon fill="#404040" stroke="#404040" points="425.14,-137.89 435,-134 424.87,-130.89 425.14,-137.89"/>
</g>
<!-- header__seq&#45;&gt;header__inst__index -->
<g id="edge3" class="edge">
<title>header__seq:index_size_type&#45;&gt;header__inst__index:index_size</title>
<path fill="none" stroke="#404040" d="M385.5,-118C452.68,-118 535.71,-58.85 544.28,-112.89"/>
<polygon fill="#404040" stroke="#404040" points="540.8,-113.28 545,-123 547.78,-112.78 540.8,-113.28"/>
</g>
<!-- index__seq -->
<g id="node4" class="node">
<title>index__seq</title>
<polygon fill="#e0ffe0" stroke="transparent" points="704.5,-144 704.5,-165 732.5,-165 732.5,-144 704.5,-144"/>
<polygon fill="none" stroke="black" points="704.5,-144 704.5,-165 732.5,-165 732.5,-144 704.5,-144"/>
<text text-anchor="start" x="707.5" y="-150.8" font-family="Times New Roman,serif" font-size="14.00">pos</text>
<polygon fill="#e0ffe0" stroke="transparent" points="732.5,-144 732.5,-165 760.5,-165 760.5,-144 732.5,-144"/>
<polygon fill="none" stroke="black" points="732.5,-144 732.5,-165 760.5,-165 760.5,-144 732.5,-144"/>
<text text-anchor="start" x="735.5" y="-150.8" font-family="Times New Roman,serif" font-size="14.00">size</text>
<polygon fill="#e0ffe0" stroke="transparent" points="760.5,-144 760.5,-165 828.5,-165 828.5,-144 760.5,-144"/>
<polygon fill="none" stroke="black" points="760.5,-144 760.5,-165 828.5,-165 828.5,-144 760.5,-144"/>
<text text-anchor="start" x="782" y="-150.8" font-family="Times New Roman,serif" font-size="14.00">type</text>
<polygon fill="#e0ffe0" stroke="transparent" points="828.5,-144 828.5,-165 871.5,-165 871.5,-144 828.5,-144"/>
<polygon fill="none" stroke="black" points="828.5,-144 828.5,-165 871.5,-165 871.5,-144 828.5,-144"/>
<text text-anchor="start" x="844.5" y="-150.8" font-family="Times New Roman,serif" font-size="14.00">id</text>
<polygon fill="none" stroke="black" points="704.5,-123 704.5,-144 732.5,-144 732.5,-123 704.5,-123"/>
<text text-anchor="start" x="715" y="-129.8" font-family="Times New Roman,serif" font-size="14.00">0</text>
<polygon fill="none" stroke="black" points="732.5,-123 732.5,-144 760.5,-144 760.5,-123 732.5,-123"/>
<text text-anchor="start" x="739.5" y="-129.8" font-family="Times New Roman,serif" font-size="14.00">64</text>
<polygon fill="none" stroke="black" points="760.5,-123 760.5,-144 828.5,-144 828.5,-123 760.5,-123"/>
<text text-anchor="start" x="763.5" y="-129.8" font-family="Times New Roman,serif" font-size="14.00">IndexEntry</text>
<polygon fill="none" stroke="black" points="828.5,-123 828.5,-144 871.5,-144 871.5,-123 828.5,-123"/>
<text text-anchor="start" x="831.5" y="-129.8" font-family="Times New Roman,serif" font-size="14.00">entries</text>
<polygon fill="none" stroke="black" points="704.5,-102 704.5,-123 871.5,-123 871.5,-102 704.5,-102"/>
<text text-anchor="start" x="723" y="-108.8" font-family="Times New Roman,serif" font-size="14.00">repeat to end of stream</text>
</g>
<!-- header__inst__index&#45;&gt;index__seq -->
<g id="edge4" class="edge">
<title>header__inst__index:index_type&#45;&gt;index__seq</title>
<path fill="none" stroke="black" stroke-width="2" d="M653,-134C663.56,-134 674.59,-134 685.58,-134"/>
<polygon fill="black" stroke="black" stroke-width="2" points="685.66,-137.5 695.66,-134 685.66,-130.5 685.66,-137.5"/>
</g>
<!-- index_entry__seq -->
<g id="node5" class="node">
<title>index_entry__seq</title>
<polygon fill="#e0ffe0" stroke="transparent" points="923.5,-217 923.5,-238 951.5,-238 951.5,-217 923.5,-217"/>
<polygon fill="none" stroke="black" points="923.5,-217 923.5,-238 951.5,-238 951.5,-217 923.5,-217"/>
<text text-anchor="start" x="926.5" y="-223.8" font-family="Times New Roman,serif" font-size="14.00">pos</text>
<polygon fill="#e0ffe0" stroke="transparent" points="951.5,-217 951.5,-238 979.5,-238 979.5,-217 951.5,-217"/>
<polygon fill="none" stroke="black" points="951.5,-217 951.5,-238 979.5,-238 979.5,-217 951.5,-217"/>
<text text-anchor="start" x="954.5" y="-223.8" font-family="Times New Roman,serif" font-size="14.00">size</text>
<polygon fill="#e0ffe0" stroke="transparent" points="979.5,-217 979.5,-238 1088.5,-238 1088.5,-217 979.5,-217"/>
<polygon fill="none" stroke="black" points="979.5,-217 979.5,-238 1088.5,-238 1088.5,-217 979.5,-217"/>
<text text-anchor="start" x="1021.5" y="-223.8" font-family="Times New Roman,serif" font-size="14.00">type</text>
<polygon fill="#e0ffe0" stroke="transparent" points="1088.5,-217 1088.5,-238 1246.5,-238 1246.5,-217 1088.5,-217"/>
<polygon fill="none" stroke="black" points="1088.5,-217 1088.5,-238 1246.5,-238 1246.5,-217 1088.5,-217"/>
<text text-anchor="start" x="1162" y="-223.8" font-family="Times New Roman,serif" font-size="14.00">id</text>
<polygon fill="none" stroke="black" points="923.5,-196 923.5,-217 951.5,-217 951.5,-196 923.5,-196"/>
<text text-anchor="start" x="934" y="-202.8" font-family="Times New Roman,serif" font-size="14.00">0</text>
<polygon fill="none" stroke="black" points="951.5,-196 951.5,-217 979.5,-217 979.5,-196 951.5,-196"/>
<text text-anchor="start" x="958.5" y="-202.8" font-family="Times New Roman,serif" font-size="14.00">16</text>
<polygon fill="none" stroke="black" points="979.5,-196 979.5,-217 1088.5,-217 1088.5,-196 979.5,-196"/>
<text text-anchor="start" x="1003" y="-202.8" font-family="Times New Roman,serif" font-size="14.00">str(UTF&#45;8)</text>
<polygon fill="none" stroke="black" points="1088.5,-196 1088.5,-217 1246.5,-217 1246.5,-196 1088.5,-196"/>
<text text-anchor="start" x="1143" y="-202.8" font-family="Times New Roman,serif" font-size="14.00">identifier</text>
<polygon fill="none" stroke="black" points="923.5,-175 923.5,-196 951.5,-196 951.5,-175 923.5,-175"/>
<text text-anchor="start" x="930.5" y="-181.8" font-family="Times New Roman,serif" font-size="14.00">16</text>
<polygon fill="none" stroke="black" points="951.5,-175 951.5,-196 979.5,-196 979.5,-175 951.5,-175"/>
<text text-anchor="start" x="962" y="-181.8" font-family="Times New Roman,serif" font-size="14.00">1</text>
<polygon fill="none" stroke="black" points="979.5,-175 979.5,-196 1088.5,-196 1088.5,-175 979.5,-175"/>
<text text-anchor="start" x="982.5" y="-181.8" font-family="Times New Roman,serif" font-size="14.00">u1→Compression</text>
<polygon fill="none" stroke="black" points="1088.5,-175 1088.5,-196 1246.5,-196 1246.5,-175 1088.5,-175"/>
<text text-anchor="start" x="1131" y="-181.8" font-family="Times New Roman,serif" font-size="14.00">compression</text>
<polygon fill="none" stroke="black" points="923.5,-154 923.5,-175 951.5,-175 951.5,-154 923.5,-154"/>
<text text-anchor="start" x="930.5" y="-160.8" font-family="Times New Roman,serif" font-size="14.00">17</text>
<polygon fill="none" stroke="black" points="951.5,-154 951.5,-175 979.5,-175 979.5,-154 951.5,-154"/>
<text text-anchor="start" x="962" y="-160.8" font-family="Times New Roman,serif" font-size="14.00">3</text>
<polygon fill="none" stroke="black" points="979.5,-154 979.5,-175 1088.5,-175 1088.5,-154 979.5,-154"/>
<polygon fill="none" stroke="black" points="1088.5,-154 1088.5,-175 1246.5,-175 1246.5,-154 1088.5,-154"/>
<text text-anchor="start" x="1143.5" y="-160.8" font-family="Times New Roman,serif" font-size="14.00">reserved</text>
<polygon fill="none" stroke="black" points="923.5,-133 923.5,-154 951.5,-154 951.5,-133 923.5,-133"/>
<text text-anchor="start" x="930.5" y="-139.8" font-family="Times New Roman,serif" font-size="14.00">20</text>
<polygon fill="none" stroke="black" points="951.5,-133 951.5,-154 979.5,-154 979.5,-133 951.5,-133"/>
<text text-anchor="start" x="962" y="-139.8" font-family="Times New Roman,serif" font-size="14.00">4</text>
<polygon fill="none" stroke="black" points="979.5,-133 979.5,-154 1088.5,-154 1088.5,-133 979.5,-133"/>
<text text-anchor="start" x="1022.5" y="-139.8" font-family="Times New Roman,serif" font-size="14.00">u4le</text>
<polygon fill="none" stroke="black" points="1088.5,-133 1088.5,-154 1246.5,-154 1246.5,-133 1088.5,-133"/>
<text text-anchor="start" x="1147" y="-139.8" font-family="Times New Roman,serif" font-size="14.00">version</text>
<polygon fill="none" stroke="black" points="923.5,-112 923.5,-133 951.5,-133 951.5,-112 923.5,-112"/>
<text text-anchor="start" x="930.5" y="-118.8" font-family="Times New Roman,serif" font-size="14.00">24</text>
<polygon fill="none" stroke="black" points="951.5,-112 951.5,-133 979.5,-133 979.5,-112 951.5,-112"/>
<text text-anchor="start" x="962" y="-118.8" font-family="Times New Roman,serif" font-size="14.00">8</text>
<polygon fill="none" stroke="black" points="979.5,-112 979.5,-133 1088.5,-133 1088.5,-112 979.5,-112"/>
<text text-anchor="start" x="1022.5" y="-118.8" font-family="Times New Roman,serif" font-size="14.00">s8le</text>
<polygon fill="none" stroke="black" points="1088.5,-112 1088.5,-133 1246.5,-133 1246.5,-112 1088.5,-112"/>
<text text-anchor="start" x="1108.5" y="-118.8" font-family="Times New Roman,serif" font-size="14.00">chunk_header_offset</text>
<polygon fill="none" stroke="black" points="923.5,-91 923.5,-112 951.5,-112 951.5,-91 923.5,-91"/>
<text text-anchor="start" x="930.5" y="-97.8" font-family="Times New Roman,serif" font-size="14.00">32</text>
<polygon fill="none" stroke="black" points="951.5,-91 951.5,-112 979.5,-112 979.5,-91 951.5,-91"/>
<text text-anchor="start" x="962" y="-97.8" font-family="Times New Roman,serif" font-size="14.00">8</text>
<polygon fill="none" stroke="black" points="979.5,-91 979.5,-112 1088.5,-112 1088.5,-91 979.5,-91"/>
<text text-anchor="start" x="1022.5" y="-97.8" font-family="Times New Roman,serif" font-size="14.00">s8le</text>
<polygon fill="none" stroke="black" points="1088.5,-91 1088.5,-112 1246.5,-112 1246.5,-91 1088.5,-91"/>
<text text-anchor="start" x="1114" y="-97.8" font-family="Times New Roman,serif" font-size="14.00">chunk_header_size</text>
<polygon fill="none" stroke="black" points="923.5,-70 923.5,-91 951.5,-91 951.5,-70 923.5,-70"/>
<text text-anchor="start" x="930.5" y="-76.8" font-family="Times New Roman,serif" font-size="14.00">40</text>
<polygon fill="none" stroke="black" points="951.5,-70 951.5,-91 979.5,-91 979.5,-70 951.5,-70"/>
<text text-anchor="start" x="962" y="-76.8" font-family="Times New Roman,serif" font-size="14.00">8</text>
<polygon fill="none" stroke="black" points="979.5,-70 979.5,-91 1088.5,-91 1088.5,-70 979.5,-70"/>
<text text-anchor="start" x="1022.5" y="-76.8" font-family="Times New Roman,serif" font-size="14.00">s8le</text>
<polygon fill="none" stroke="black" points="1088.5,-70 1088.5,-91 1246.5,-91 1246.5,-70 1088.5,-70"/>
<text text-anchor="start" x="1115" y="-76.8" font-family="Times New Roman,serif" font-size="14.00">chunk_data_offset</text>
<polygon fill="none" stroke="black" points="923.5,-49 923.5,-70 951.5,-70 951.5,-49 923.5,-49"/>
<text text-anchor="start" x="930.5" y="-55.8" font-family="Times New Roman,serif" font-size="14.00">48</text>
<polygon fill="none" stroke="black" points="951.5,-49 951.5,-70 979.5,-70 979.5,-49 951.5,-49"/>
<text text-anchor="start" x="962" y="-55.8" font-family="Times New Roman,serif" font-size="14.00">8</text>
<polygon fill="none" stroke="black" points="979.5,-49 979.5,-70 1088.5,-70 1088.5,-49 979.5,-49"/>
<text text-anchor="start" x="1022.5" y="-55.8" font-family="Times New Roman,serif" font-size="14.00">s8le</text>
<polygon fill="none" stroke="black" points="1088.5,-49 1088.5,-70 1246.5,-70 1246.5,-49 1088.5,-49"/>
<text text-anchor="start" x="1120.5" y="-55.8" font-family="Times New Roman,serif" font-size="14.00">chunk_data_size</text>
<polygon fill="none" stroke="black" points="923.5,-28 923.5,-49 951.5,-49 951.5,-28 923.5,-28"/>
<text text-anchor="start" x="930.5" y="-34.8" font-family="Times New Roman,serif" font-size="14.00">56</text>
<polygon fill="none" stroke="black" points="951.5,-28 951.5,-49 979.5,-49 979.5,-28 951.5,-28"/>
<text text-anchor="start" x="962" y="-34.8" font-family="Times New Roman,serif" font-size="14.00">8</text>
<polygon fill="none" stroke="black" points="979.5,-28 979.5,-49 1088.5,-49 1088.5,-28 979.5,-28"/>
<text text-anchor="start" x="1022.5" y="-34.8" font-family="Times New Roman,serif" font-size="14.00">s8le</text>
<polygon fill="none" stroke="black" points="1088.5,-28 1088.5,-49 1246.5,-49 1246.5,-28 1088.5,-28"/>
<text text-anchor="start" x="1091.5" y="-34.8" font-family="Times New Roman,serif" font-size="14.00">uncompressed_chunk_size</text>
</g>
<!-- index__seq&#45;&gt;index_entry__seq -->
<g id="edge5" class="edge">
<title>index__seq:entries_type&#45;&gt;index_entry__seq</title>
<path fill="none" stroke="black" stroke-width="2" d="M872.5,-133C883.02,-133 893.83,-133 904.74,-133"/>
<polygon fill="black" stroke="black" stroke-width="2" points="904.78,-136.5 914.78,-133 904.78,-129.5 904.78,-136.5"/>
</g>
<!-- index_entry__inst__header -->
<g id="node6" class="node">
<title>index_entry__inst__header</title>
<polygon fill="#e0ffe0" stroke="transparent" points="1298.5,-135 1298.5,-156 1422.5,-156 1422.5,-135 1298.5,-135"/>
<polygon fill="none" stroke="black" points="1298.5,-135 1298.5,-156 1422.5,-156 1422.5,-135 1298.5,-135"/>
<text text-anchor="start" x="1349.5" y="-141.8" font-family="Times New Roman,serif" font-size="14.00">pos</text>
<polygon fill="#e0ffe0" stroke="transparent" points="1422.5,-135 1422.5,-156 1535.5,-156 1535.5,-135 1422.5,-135"/>
<polygon fill="none" stroke="black" points="1422.5,-135 1422.5,-156 1535.5,-156 1535.5,-135 1422.5,-135"/>
<text text-anchor="start" x="1468" y="-141.8" font-family="Times New Roman,serif" font-size="14.00">size</text>
<polygon fill="#e0ffe0" stroke="transparent" points="1535.5,-135 1535.5,-156 1566.5,-156 1566.5,-135 1535.5,-135"/>
<polygon fill="none" stroke="black" points="1535.5,-135 1535.5,-156 1566.5,-156 1566.5,-135 1535.5,-135"/>
<text text-anchor="start" x="1538.5" y="-141.8" font-family="Times New Roman,serif" font-size="14.00">type</text>
<polygon fill="#e0ffe0" stroke="transparent" points="1566.5,-135 1566.5,-156 1609.5,-156 1609.5,-135 1566.5,-135"/>
<polygon fill="none" stroke="black" points="1566.5,-135 1566.5,-156 1609.5,-156 1609.5,-135 1566.5,-135"/>
<text text-anchor="start" x="1582.5" y="-141.8" font-family="Times New Roman,serif" font-size="14.00">id</text>
<polygon fill="none" stroke="black" points="1298.5,-114 1298.5,-135 1422.5,-135 1422.5,-114 1298.5,-114"/>
<text text-anchor="start" x="1301.5" y="-120.8" font-family="Times New Roman,serif" font-size="14.00">chunk_header_offset</text>
<polygon fill="none" stroke="black" points="1422.5,-114 1422.5,-135 1535.5,-135 1535.5,-114 1422.5,-114"/>
<text text-anchor="start" x="1425.5" y="-120.8" font-family="Times New Roman,serif" font-size="14.00">chunk_header_size</text>
<polygon fill="none" stroke="black" points="1535.5,-114 1535.5,-135 1566.5,-135 1566.5,-114 1535.5,-114"/>
<polygon fill="none" stroke="black" points="1566.5,-114 1566.5,-135 1609.5,-135 1609.5,-114 1566.5,-114"/>
<text text-anchor="start" x="1569.5" y="-120.8" font-family="Times New Roman,serif" font-size="14.00">header</text>
</g>
<!-- index_entry__seq&#45;&gt;index_entry__inst__header -->
<g id="edge6" class="edge">
<title>index_entry__seq:chunk_header_offset_type&#45;&gt;index_entry__inst__header:header_pos</title>
<path fill="none" stroke="#404040" d="M1247.5,-122C1265.92,-122 1272.87,-123.37 1287.34,-123.84"/>
<polygon fill="#404040" stroke="#404040" points="1287.45,-127.34 1297.5,-124 1287.56,-120.35 1287.45,-127.34"/>
</g>
<!-- index_entry__seq&#45;&gt;index_entry__inst__header -->
<g id="edge7" class="edge">
<title>index_entry__seq:chunk_header_size_type&#45;&gt;index_entry__inst__header:header_size</title>
<path fill="none" stroke="#404040" d="M1247.5,-101C1258.82,-101 1428.7,-100.3 1470.34,-108.84"/>
<polygon fill="#404040" stroke="#404040" points="1468.95,-112.05 1479.5,-113 1471.85,-105.68 1468.95,-112.05"/>
</g>
<!-- index_entry__inst__data -->
<g id="node7" class="node">
<title>index_entry__inst__data</title>
<polygon fill="#e0ffe0" stroke="transparent" points="1317.5,-67 1317.5,-88 1428.5,-88 1428.5,-67 1317.5,-67"/>
<polygon fill="none" stroke="black" points="1317.5,-67 1317.5,-88 1428.5,-88 1428.5,-67 1317.5,-67"/>
<text text-anchor="start" x="1362" y="-73.8" font-family="Times New Roman,serif" font-size="14.00">pos</text>
<polygon fill="#e0ffe0" stroke="transparent" points="1428.5,-67 1428.5,-88 1528.5,-88 1528.5,-67 1428.5,-67"/>
<polygon fill="none" stroke="black" points="1428.5,-67 1428.5,-88 1528.5,-88 1528.5,-67 1428.5,-67"/>
<text text-anchor="start" x="1467.5" y="-73.8" font-family="Times New Roman,serif" font-size="14.00">size</text>
<polygon fill="#e0ffe0" stroke="transparent" points="1528.5,-67 1528.5,-88 1559.5,-88 1559.5,-67 1528.5,-67"/>
<polygon fill="none" stroke="black" points="1528.5,-67 1528.5,-88 1559.5,-88 1559.5,-67 1528.5,-67"/>
<text text-anchor="start" x="1531.5" y="-73.8" font-family="Times New Roman,serif" font-size="14.00">type</text>
<polygon fill="#e0ffe0" stroke="transparent" points="1559.5,-67 1559.5,-88 1589.5,-88 1589.5,-67 1559.5,-67"/>
<polygon fill="none" stroke="black" points="1559.5,-67 1559.5,-88 1589.5,-88 1589.5,-67 1559.5,-67"/>
<text text-anchor="start" x="1569" y="-73.8" font-family="Times New Roman,serif" font-size="14.00">id</text>
<polygon fill="none" stroke="black" points="1317.5,-46 1317.5,-67 1428.5,-67 1428.5,-46 1317.5,-46"/>
<text text-anchor="start" x="1320.5" y="-52.8" font-family="Times New Roman,serif" font-size="14.00">chunk_data_offset</text>
<polygon fill="none" stroke="black" points="1428.5,-46 1428.5,-67 1528.5,-67 1528.5,-46 1428.5,-46"/>
<text text-anchor="start" x="1431.5" y="-52.8" font-family="Times New Roman,serif" font-size="14.00">chunk_data_size</text>
<polygon fill="none" stroke="black" points="1528.5,-46 1528.5,-67 1559.5,-67 1559.5,-46 1528.5,-46"/>
<polygon fill="none" stroke="black" points="1559.5,-46 1559.5,-67 1589.5,-67 1589.5,-46 1559.5,-46"/>
<text text-anchor="start" x="1562.5" y="-52.8" font-family="Times New Roman,serif" font-size="14.00">data</text>
</g>
<!-- index_entry__seq&#45;&gt;index_entry__inst__data -->
<g id="edge8" class="edge">
<title>index_entry__seq:chunk_data_offset_type&#45;&gt;index_entry__inst__data:data_pos</title>
<path fill="none" stroke="#404040" d="M1247.5,-80C1276.29,-80 1282.75,-61.13 1306.48,-56.85"/>
<polygon fill="#404040" stroke="#404040" points="1306.83,-60.34 1316.5,-56 1306.24,-53.36 1306.83,-60.34"/>
</g>
<!-- index_entry__seq&#45;&gt;index_entry__inst__data -->
<g id="edge9" class="edge">
<title>index_entry__seq:chunk_data_size_type&#45;&gt;index_entry__inst__data:data_size</title>
<path fill="none" stroke="#404040" d="M1247.5,-59C1275.65,-59 1281.5,-48.99 1309.5,-46 1380.54,-38.42 1469.34,23.6 1477.84,-35"/>
<polygon fill="#404040" stroke="#404040" points="1474.35,-35.25 1478.5,-45 1481.33,-34.79 1474.35,-35.25"/>
</g>
</g>
</svg>
